<svg width="33" height="29" viewBox="0 0 33 29" fill="none" xmlns="http://www.w3.org/2000/svg">
<path d="M13.5992 0.799996L8.59922 21.1L7.39922 15.3C9.33255 15.3 10.9326 15.9 12.1992 17.1C13.4659 18.3 14.0992 19.9 14.0992 21.9C14.0992 23.9 13.4659 25.5333 12.1992 26.8C10.9326 28.0667 9.36589 28.7 7.49922 28.7C5.56589 28.7 3.96589 28.0667 2.69922 26.8C1.43255 25.4667 0.799219 23.8333 0.799219 21.9C0.799219 21.2333 0.832552 20.6 0.899219 20C1.03255 19.4 1.23255 18.7 1.49922 17.9C1.76589 17.0333 2.13255 16 2.59922 14.8L7.29922 0.799996H13.5992ZM32.4992 0.799996L27.4992 21.1L26.2992 15.3C28.2326 15.3 29.8326 15.9 31.0992 17.1C32.3659 18.3 32.9992 19.9 32.9992 21.9C32.9992 23.9 32.3659 25.5333 31.0992 26.8C29.8326 28.0667 28.2659 28.7 26.3992 28.7C24.4659 28.7 22.8659 28.0667 21.5992 26.8C20.3326 25.4667 19.6992 23.8333 19.6992 21.9C19.6992 21.2333 19.7326 20.6 19.7992 20C19.9326 19.4 20.1326 18.7 20.3992 17.9C20.6659 17.0333 21.0326 16 21.4992 14.8L26.1992 0.799996H32.4992Z" fill="#4F4F1B"/>
</svg>
